<mxfile host="app.diagrams.net" modified="2020-06-11T02:11:04.137Z" agent="5.0 (Windows NT 10.0; Win64; x64) AppleWebKit/537.36 (KHTML, like Gecko) Chrome/83.0.4103.97 Safari/537.36" etag="gAPpB5coZPSmJtBpHbL8" version="13.2.1" type="github">
  <diagram id="ELy54gUj_svtiCcX6ysn" name="Page-1">
    <mxGraphModel dx="1422" dy="794" grid="1" gridSize="10" guides="1" tooltips="1" connect="1" arrows="1" fold="1" page="1" pageScale="1" pageWidth="850" pageHeight="1100" math="0" shadow="0">
      <root>
        <mxCell id="0" />
        <mxCell id="1" parent="0" />
        <mxCell id="383oYUXR2MFuqn5OYpB7-2" value="MATH&#39;S QUIZ" style="strokeWidth=1;shadow=0;dashed=0;align=center;html=1;shape=mxgraph.mockup.containers.window;align=left;verticalAlign=top;spacingLeft=8;strokeColor2=#008cff;strokeColor3=#c4c4c4;fontColor=#666666;mainText=;fontSize=20;labelBackgroundColor=none;" parent="1" vertex="1">
          <mxGeometry x="150" y="220" width="550" height="380" as="geometry" />
        </mxCell>
        <mxCell id="383oYUXR2MFuqn5OYpB7-4" value="Question 1, Question 2 etc&lt;br style=&quot;font-size: 20px&quot;&gt;&lt;span style=&quot;font-size: 20px&quot;&gt;What is 6 x 13, What is 4 x 11 etc&lt;/span&gt;" style="rounded=0;whiteSpace=wrap;html=1;fontSize=30;fillColor=#FFFF00;strokeColor=#006EAF;fontColor=#000000;" parent="1" vertex="1">
          <mxGeometry x="245" y="280" width="360" height="80" as="geometry" />
        </mxCell>
        <mxCell id="383oYUXR2MFuqn5OYpB7-6" value="" style="endArrow=classic;html=1;fontSize=30;fontColor=#000000;" parent="1" edge="1">
          <mxGeometry width="50" height="50" relative="1" as="geometry">
            <mxPoint x="230" y="330" as="sourcePoint" />
            <mxPoint x="260" y="330" as="targetPoint" />
          </mxGeometry>
        </mxCell>
        <mxCell id="383oYUXR2MFuqn5OYpB7-7" value="Yellow background for easy questions, orange for medium questions etc" style="text;html=1;strokeColor=none;fillColor=none;align=center;verticalAlign=middle;whiteSpace=wrap;rounded=0;fontSize=14;fontColor=#000000;" parent="1" vertex="1">
          <mxGeometry x="160" y="270" width="70" height="120" as="geometry" />
        </mxCell>
        <mxCell id="LzvDb45D46EJDG2ZUiZ_-1" value="Please select 1 of the 3 answer&lt;br&gt;to see if you are Correct or Incorrect.&lt;br&gt;" style="text;html=1;strokeColor=none;fillColor=none;align=center;verticalAlign=middle;whiteSpace=wrap;rounded=0;fontSize=20;" vertex="1" parent="1">
          <mxGeometry x="230" y="390" width="420" height="60" as="geometry" />
        </mxCell>
        <mxCell id="LzvDb45D46EJDG2ZUiZ_-3" value="44" style="rounded=0;whiteSpace=wrap;html=1;fontSize=20;fillColor=#fa6800;strokeColor=#C73500;fontColor=#000000;" vertex="1" parent="1">
          <mxGeometry x="210" y="510" width="130" height="40" as="geometry" />
        </mxCell>
        <mxCell id="LzvDb45D46EJDG2ZUiZ_-4" value="63" style="rounded=0;whiteSpace=wrap;html=1;fontSize=20;fillColor=#1ba1e2;strokeColor=#006EAF;fontColor=#000000;" vertex="1" parent="1">
          <mxGeometry x="360" y="510" width="130" height="40" as="geometry" />
        </mxCell>
        <mxCell id="LzvDb45D46EJDG2ZUiZ_-5" value="54" style="rounded=0;whiteSpace=wrap;html=1;fontSize=20;fillColor=#008a00;strokeColor=#005700;fontColor=#000000;" vertex="1" parent="1">
          <mxGeometry x="510" y="510" width="130" height="40" as="geometry" />
        </mxCell>
      </root>
    </mxGraphModel>
  </diagram>
</mxfile>
